<svg width="38" height="38" viewBox="0 0 38 38" fill="none" xmlns="http://www.w3.org/2000/svg">
<path d="M21.6665 15.6667C21.6665 15.4899 21.7367 15.3203 21.8618 15.1953C21.9868 15.0702 22.1564 15 22.3332 15C22.51 15 22.6796 15.0702 22.8046 15.1953C22.9296 15.3203 22.9998 15.4899 22.9998 15.6667C22.9998 15.8435 22.9296 16.013 22.8046 16.1381C22.6796 16.2631 22.51 16.3333 22.3332 16.3333C22.1564 16.3333 21.9868 16.2631 21.8618 16.1381C21.7367 16.013 21.6665 15.8435 21.6665 15.6667Z" fill="#636270"/>
<path fill-rule="evenodd" clip-rule="evenodd" d="M18.9999 15.8335C18.1601 15.8335 17.3546 16.1671 16.7607 16.761C16.1669 17.3549 15.8333 18.1603 15.8333 19.0002C15.8333 19.84 16.1669 20.6455 16.7607 21.2393C17.3546 21.8332 18.1601 22.1668 18.9999 22.1668C19.8398 22.1668 20.6452 21.8332 21.2391 21.2393C21.833 20.6455 22.1666 19.84 22.1666 19.0002C22.1666 18.1603 21.833 17.3549 21.2391 16.761C20.6452 16.1671 19.8398 15.8335 18.9999 15.8335ZM16.8333 19.0002C16.8333 18.4255 17.0615 17.8744 17.4679 17.4681C17.8742 17.0618 18.4253 16.8335 18.9999 16.8335C19.5746 16.8335 20.1257 17.0618 20.532 17.4681C20.9383 17.8744 21.1666 18.4255 21.1666 19.0002C21.1666 19.5748 20.9383 20.1259 20.532 20.5322C20.1257 20.9386 19.5746 21.1668 18.9999 21.1668C18.4253 21.1668 17.8742 20.9386 17.4679 20.5322C17.0615 20.1259 16.8333 19.5748 16.8333 19.0002Z" fill="#636270"/>
<path fill-rule="evenodd" clip-rule="evenodd" d="M22.5053 12.8888C20.1755 12.6305 17.8244 12.6305 15.4946 12.8888C14.1533 13.0388 13.07 14.0954 12.9126 15.4434C12.6362 17.8065 12.6362 20.1937 12.9126 22.5568C13.07 23.9048 14.1526 24.9614 15.4946 25.1114C17.8053 25.3694 20.1946 25.3694 22.5053 25.1114C23.8466 24.9614 24.93 23.9048 25.0873 22.5568C25.3637 20.1937 25.3637 17.8065 25.0873 15.4434C24.93 14.0954 23.8473 13.0388 22.5053 12.8888ZM15.6053 13.8821C17.8615 13.632 20.1384 13.632 22.3946 13.8821C23.2813 13.9821 23.9913 14.6814 24.0946 15.5601C24.3619 17.8456 24.3619 20.1546 24.0946 22.4401C23.9913 23.3188 23.2813 24.0188 22.3946 24.1174C20.1384 24.3675 17.8615 24.3675 15.6053 24.1174C14.7186 24.0188 14.0086 23.3188 13.9053 22.4401C13.638 20.1546 13.638 17.8456 13.9053 15.5601C14.0086 14.6814 14.7186 13.9814 15.6053 13.8828V13.8821Z" fill="#636270"/>
</svg>
